<?xml version="1.0" standalone="no"?>
<!DOCTYPE svg PUBLIC "-//W3C//DTD SVG 20010904//EN"
 "http://www.w3.org/TR/2001/REC-SVG-20010904/DTD/svg10.dtd">
<svg version="1.0" xmlns="http://www.w3.org/2000/svg"
 width="949.000000pt" height="949.000000pt" viewBox="0 0 949.000000 949.000000"
 preserveAspectRatio="xMidYMid meet">
<metadata>
Created by potrace 1.14, written by Peter Selinger 2001-2017
</metadata>
<g transform="translate(0.000000,949.000000) scale(0.100000,-0.100000)"
fill="#000000" stroke="none">
<path d="M4305 7292 c-10 -2 -52 -22 -92 -43 -40 -22 -79 -39 -86 -39 -8 0
-27 -11 -43 -25 -16 -14 -38 -25 -48 -25 -11 0 -55 -22 -98 -50 -43 -27 -81
-50 -83 -50 -2 0 -21 -11 -41 -25 -20 -14 -46 -25 -56 -25 -11 0 -34 -11 -52
-25 -72 -58 -102 -78 -176 -116 -36 -18 -87 -49 -115 -69 -27 -20 -97 -63
-155 -95 -58 -33 -130 -77 -160 -100 -71 -53 -107 -75 -120 -75 -6 0 -40 -20
-76 -46 -36 -25 -77 -49 -91 -55 -14 -5 -42 -22 -62 -38 -20 -16 -76 -50 -126
-76 -143 -76 -178 -97 -216 -135 -20 -20 -66 -53 -102 -74 -36 -21 -79 -51
-97 -67 -17 -16 -35 -29 -39 -29 -13 0 -45 -33 -79 -81 -18 -25 -50 -56 -70
-68 -20 -12 -62 -38 -92 -56 -55 -34 -88 -51 -167 -86 -23 -10 -70 -39 -105
-65 -34 -25 -94 -64 -133 -87 -38 -22 -72 -43 -75 -47 -3 -3 -16 -14 -30 -24
-24 -17 -23 -18 80 -13 113 5 117 6 288 43 105 22 150 37 162 54 16 22 285
216 333 240 81 41 91 34 84 -54 -7 -87 -1 -101 45 -93 66 10 191 97 503 348
269 216 297 226 374 141 161 -176 237 -255 264 -268 121 -63 214 166 144 358
l-24 66 44 53 c25 30 52 63 61 74 9 11 35 43 57 70 22 28 48 59 57 70 9 11 24
29 32 40 16 22 13 29 52 -129 36 -147 65 -174 66 -60 0 116 85 324 139 343 30
10 32 16 29 62 -2 46 25 93 83 143 40 34 67 69 94 122 21 40 43 74 48 74 10
-1 58 -45 250 -229 53 -51 123 -105 170 -132 118 -68 172 -130 180 -206 2 -21
22 -93 45 -161 23 -68 41 -142 42 -165 0 -23 4 -50 9 -59 5 -10 69 -77 142
-150 124 -123 137 -140 180 -230 26 -54 50 -98 53 -98 3 0 2 47 -2 104 -4 66
-3 105 4 110 5 3 28 -19 51 -49 23 -30 74 -78 114 -108 70 -52 153 -136 185
-187 40 -63 105 -140 118 -140 18 0 18 9 -5 72 -11 29 -27 87 -35 128 -19 89
-41 174 -50 189 -4 6 -52 40 -106 77 -183 121 -231 183 -180 234 26 26 55 15
139 -50 98 -76 100 -71 35 56 -59 115 -67 123 -93 100 -25 -22 -45 -13 -31 14
6 11 10 23 9 27 -5 30 3 63 15 63 33 0 22 22 -45 86 -39 38 -75 78 -81 88 -15
28 -11 84 10 141 21 56 21 134 2 170 -7 13 -10 31 -7 39 10 24 76 20 127 -8
56 -31 293 -148 341 -169 19 -9 87 -38 150 -65 103 -45 121 -56 179 -117 118
-122 284 -230 450 -292 79 -30 75 -26 -70 70 -106 70 -260 198 -260 217 0 8
131 -25 160 -40 10 -5 41 -30 70 -54 29 -25 73 -55 99 -67 25 -11 82 -47 126
-78 151 -109 183 -130 255 -166 40 -20 101 -45 135 -56 79 -24 135 -68 249
-195 49 -54 108 -116 130 -137 66 -62 258 -201 282 -204 12 -2 79 -19 149 -38
70 -19 149 -35 177 -35 l49 0 -66 34 c-36 19 -103 64 -148 99 -87 68 -121 88
-231 137 -125 55 -237 151 -391 335 -114 136 -171 175 -355 240 -102 36 -149
61 -180 96 -59 64 -472 288 -544 293 -20 2 -59 17 -87 35 -28 17 -54 31 -59
31 -5 0 -26 10 -47 21 -43 24 -183 71 -353 119 -63 18 -124 40 -135 50 -28 24
-67 45 -164 85 l-84 34 -51 -18 c-28 -10 -72 -30 -96 -44 -120 -69 -187 -98
-214 -91 -16 4 -39 1 -54 -6 -15 -7 -41 -19 -57 -27 -28 -14 -33 -13 -69 8
-20 13 -67 50 -102 81 -36 31 -75 60 -87 64 -12 3 -40 19 -62 36 -22 16 -56
40 -75 53 -41 29 -214 115 -230 115 -6 0 -27 8 -48 18 -20 10 -46 16 -57 14z"/>
<path d="M9034 5288 c-62 -13 -144 -67 -186 -123 -52 -68 -80 -162 -80 -273
-1 -211 60 -311 237 -386 269 -113 260 -104 260 -276 0 -137 -9 -173 -53 -205
-35 -26 -137 -27 -175 -2 -49 32 -65 69 -66 155 l-1 42 -109 0 -109 0 4 -82
c6 -142 80 -258 199 -314 60 -28 91 -34 171 -35 137 -2 251 59 304 161 49 95
68 268 47 415 -24 165 -77 216 -320 309 -54 21 -111 49 -127 63 -36 30 -52 85
-49 162 4 80 18 118 56 152 28 24 43 29 83 29 27 0 59 -5 72 -11 42 -18 70
-73 76 -144 2 -36 7 -66 11 -66 17 -4 187 -5 197 -2 7 3 10 36 9 92 -4 128
-47 212 -145 283 -78 56 -204 79 -306 56z"/>
<path d="M9 5280 c-1 -3 -2 -337 -3 -742 l-1 -738 107 0 108 0 0 314 0 314 38
3 c89 9 83 16 142 -174 29 -95 70 -226 90 -292 21 -66 41 -130 45 -142 6 -22
11 -23 121 -23 63 0 114 1 114 3 0 1 -52 154 -115 339 l-114 338 27 14 c129
68 189 296 137 521 -32 140 -105 219 -235 255 -45 13 -459 22 -461 10z m386
-204 c82 -15 116 -87 111 -241 -5 -171 -38 -207 -198 -212 l-88 -3 0 230 0
229 28 3 c36 4 109 1 147 -6z"/>
<path d="M1440 5285 c0 0 -11 -50 -25 -110 -27 -119 -54 -238 -61 -270 -2 -11
-15 -72 -30 -135 -14 -63 -27 -122 -29 -130 -5 -24 -166 -743 -170 -760 -2 -8
-7 -30 -11 -48 l-7 -33 109 3 109 3 11 60 c6 33 15 74 18 90 4 17 9 44 12 60
2 17 8 46 12 65 l8 35 141 3 142 3 10 -38 c5 -21 20 -93 32 -160 l24 -123 108
0 c59 0 107 2 107 5 0 2 -9 42 -19 88 -11 45 -22 94 -25 107 -4 21 -99 449
-111 500 -2 8 -10 44 -18 80 -8 36 -38 169 -67 295 -60 270 -57 255 -71 325
-17 86 -16 85 -113 85 -47 1 -86 1 -86 0z m105 -512 c8 -38 17 -87 21 -109 3
-21 7 -41 9 -44 2 -3 6 -26 10 -50 3 -25 10 -61 15 -80 10 -39 22 -114 24
-145 1 -19 -6 -20 -96 -22 -89 -2 -98 -1 -98 16 0 14 47 265 75 396 4 17 9 49
12 73 3 23 7 41 10 39 2 -2 10 -36 18 -74z"/>
<path d="M2370 4543 l0 -743 108 0 107 0 0 740 c0 407 -2 741 -5 741 -3 1 -51
2 -107 3 l-103 2 0 -743z"/>
<path d="M3094 5281 c-2 -2 -4 -336 -4 -743 l1 -738 109 0 109 0 0 258 c0 141
1 340 1 442 l1 185 50 -140 c28 -77 54 -149 59 -160 5 -11 55 -147 111 -302
l103 -283 100 0 101 0 0 740 c0 407 -2 741 -5 741 -14 4 -187 5 -197 1 -8 -2
-11 -114 -11 -425 -1 -458 -1 -470 -9 -447 -90 252 -288 806 -299 835 l-15 40
-100 0 c-55 0 -102 -2 -105 -4z"/>
<path d="M4250 5275 c0 -9 168 -508 267 -795 17 -50 19 -86 18 -367 l0 -313
107 0 108 0 0 314 0 314 145 425 c80 234 145 426 145 429 0 6 -218 3 -224 -3
-4 -4 -106 -345 -131 -439 -22 -81 -35 -123 -39 -127 -7 -7 -5 -13 -76 232
-34 116 -70 239 -80 275 l-19 65 -111 0 c-71 0 -110 -3 -110 -10z"/>
<path d="M5459 5271 c0 -9 -1 -344 -2 -744 l-2 -729 210 4 c192 4 215 6 270
28 91 35 157 107 187 201 23 73 23 82 23 514 0 487 -2 507 -62 598 -39 60 -77
89 -154 119 -48 18 -78 21 -261 22 -182 2 -208 0 -209 -13z m448 -261 c23 -45
23 -47 24 -457 0 -269 -3 -425 -11 -452 -7 -27 -22 -49 -45 -67 -30 -23 -47
-27 -119 -31 l-83 -4 1 538 1 538 60 5 c91 8 143 -13 172 -70z"/>
<path d="M6865 5271 c-3 -9 -5 -18 -5 -21 -1 -3 -5 -23 -11 -45 -5 -22 -45
-202 -90 -400 -78 -350 -84 -378 -93 -420 -2 -11 -20 -90 -39 -175 -20 -85
-38 -166 -40 -180 -3 -14 -12 -56 -21 -95 -10 -38 -19 -85 -22 -102 l-5 -33
106 0 c76 0 107 4 109 13 2 6 16 78 31 160 l28 147 143 0 c160 0 143 8 158
-75 12 -61 37 -191 41 -205 2 -8 4 -21 4 -27 1 -10 30 -13 112 -13 101 0 110
2 105 18 -5 16 -102 442 -110 487 -2 11 -21 92 -41 180 -20 88 -39 171 -41
185 -3 14 -14 66 -26 115 -11 50 -28 130 -39 179 -10 48 -23 105 -28 125 -6
20 -13 50 -16 66 -3 17 -11 52 -18 80 l-13 49 -87 1 c-70 1 -88 -2 -92 -14z
m105 -482 c6 -30 13 -67 16 -84 4 -29 60 -317 69 -361 5 -21 2 -22 -100 -22
-77 -1 -103 2 -100 11 2 7 6 28 9 47 12 79 90 470 93 466 2 -1 8 -27 13 -57z"/>
<path d="M7590 5274 c0 -6 64 -197 142 -425 l141 -414 1 -317 1 -318 107 0
108 0 0 314 0 314 126 368 c125 367 163 483 160 485 0 1 -50 2 -109 3 -88 1
-110 -1 -116 -14 -4 -8 -43 -140 -87 -292 -43 -152 -82 -271 -85 -265 -3 7
-34 109 -68 227 -35 118 -71 244 -81 280 l-19 65 -111 0 c-75 1 -110 -3 -110
-11z"/>
<path d="M3087 3373 c-1 -1 -351 -4 -777 -7 -426 -4 -966 -9 -1200 -12 -234
-3 -502 -6 -597 -7 -94 -1 -169 -5 -167 -9 3 -4 24 -7 47 -6 23 0 164 -2 312
-6 914 -22 1472 -31 2465 -41 584 -6 2564 -6 3135 -1 521 6 1262 16 1515 21
411 8 830 17 960 20 74 2 184 4 244 4 158 1 122 14 -47 17 -326 5 -1156 15
-1787 20 -594 6 -4099 12 -4103 7z"/>
<path d="M307 3339 c7 -7 15 -10 18 -7 3 3 -2 9 -12 12 -14 6 -15 5 -6 -5z"/>
<path d="M9150 3340 c-12 -7 -10 -9 7 -7 12 0 19 5 17 9 -6 10 -6 10 -24 -2z"/>
<path d="M258 3333 c6 -2 18 -2 25 0 6 3 1 5 -13 5 -14 0 -19 -2 -12 -5z"/>
<path d="M9198 3333 c7 -3 16 -2 19 1 4 3 -2 6 -13 5 -11 0 -14 -3 -6 -6z"/>
<path d="M1609 2728 c-1 -38 -1 -364 0 -390 1 -14 9 -18 34 -18 l33 0 -1 85
-1 85 64 0 c84 0 125 20 151 73 32 66 13 135 -46 174 -19 13 -53 18 -129 21
l-104 3 -1 -33z m164 -37 c53 -2 83 -69 49 -112 -16 -19 -30 -23 -83 -25 l-64
-3 1 72 c1 40 2 72 3 72 0 0 16 -1 33 -2 18 -1 45 -2 61 -2z"/>
<path d="M2590 2539 l0 -219 33 0 32 0 0 111 c0 98 2 112 19 125 11 8 30 14
42 14 40 0 51 -32 53 -143 1 -56 4 -103 7 -106 2 -2 15 -5 29 -6 23 -1 25 3
26 50 3 191 -2 222 -37 248 -32 24 -71 28 -111 11 l-33 -13 0 73 0 73 -30 1
-30 1 0 -220z"/>
<path d="M2920 2727 c0 -33 2 -35 33 -35 29 0 32 2 31 31 -1 28 -5 32 -32 35
-30 3 -32 1 -32 -31z"/>
<path d="M4030 2540 l0 -220 33 0 32 0 -2 105 c-2 93 0 108 18 126 23 23 62
25 80 3 9 -11 16 -55 19 -127 l5 -110 28 -1 c30 -2 28 -11 28 154 0 33 0 69 0
80 -1 31 -52 80 -87 85 -17 2 -43 -3 -59 -11 -15 -8 -29 -14 -32 -14 -2 0 -4
26 -3 58 3 93 3 92 -30 92 l-30 0 0 -220z"/>
<path d="M4892 2750 c-28 -12 -42 -25 -67 -64 -15 -23 -20 -50 -21 -134 -3
-147 14 -188 91 -223 74 -32 153 -4 193 69 22 39 22 42 5 43 -38 3 -59 -3 -73
-21 -37 -45 -96 -46 -130 -2 -17 20 -20 40 -20 114 0 124 19 158 90 158 27 0
70 -32 70 -52 0 -4 16 -8 35 -8 19 0 35 5 35 11 0 23 -32 75 -57 93 -30 22
-115 31 -151 16z"/>
<path d="M6033 2750 c-27 -11 -43 -40 -43 -80 0 -18 -6 -33 -15 -36 -8 -4 -15
-17 -15 -30 0 -15 6 -24 15 -24 13 0 15 -21 15 -129 l0 -129 25 -4 c14 -3 28
-1 32 5 3 6 6 66 6 134 l-1 123 29 0 c28 0 30 3 29 47 0 4 -13 6 -28 5 -23 -3
-28 1 -29 20 -3 29 13 48 37 43 13 -3 19 4 22 26 3 16 2 31 0 34 -8 8 -55 5
-79 -5z"/>
<path d="M6990 2731 c0 -36 6 -38 107 -36 l81 1 -13 -26 c-8 -15 -50 -87 -94
-161 -49 -81 -81 -145 -81 -161 0 -31 -9 -29 150 -29 132 -1 126 -2 126 31 l0
30 -70 1 c-39 1 -84 0 -100 -1 l-29 -2 28 49 c16 26 61 100 100 164 44 70 71
125 70 140 -2 24 -2 24 -138 27 l-137 3 0 -30z"/>
<path d="M970 2725 c0 -10 82 -128 112 -160 15 -16 28 -32 28 -35 0 -3 -16
-23 -36 -45 -68 -77 -146 -176 -141 -181 6 -6 154 106 191 145 l29 31 61 -54
c64 -55 159 -126 170 -126 8 0 -76 107 -137 175 l-45 50 23 30 c41 51 117 166
113 170 -2 2 -44 -31 -93 -74 l-90 -79 -52 48 c-66 61 -133 113 -133 105z"/>
<path d="M3873 2723 c-8 -3 -13 -22 -13 -48 0 -29 -5 -45 -15 -49 -8 -3 -15
-15 -15 -26 0 -11 7 -20 15 -20 8 0 15 -8 16 -17 0 -10 1 -59 2 -109 2 -107
17 -134 74 -134 30 0 33 3 33 29 0 23 -5 30 -22 33 -21 3 -23 8 -23 101 -1 95
0 97 22 97 18 0 23 6 23 25 0 18 -5 25 -19 25 -22 0 -28 13 -26 58 1 17 -1 32
-4 33 -3 0 -13 2 -21 3 -8 2 -21 1 -27 -1z"/>
<path d="M6700 2678 c0 -36 -4 -48 -15 -48 -9 0 -15 -9 -15 -25 0 -16 6 -25
15 -25 12 0 15 -19 15 -110 0 -127 12 -150 75 -150 31 0 34 2 32 28 -1 17 -9
29 -22 32 -18 5 -20 15 -21 102 -1 92 0 97 20 100 27 4 28 41 1 48 -15 5 -20
15 -20 42 -1 43 -7 52 -40 54 -23 1 -25 -2 -25 -48z"/>
<path d="M8486 2704 c10 -16 44 -63 76 -106 51 -69 55 -78 41 -90 -28 -22
-173 -201 -168 -206 5 -6 134 91 189 142 22 20 42 33 45 28 3 -4 40 -37 82
-73 82 -68 148 -112 134 -88 -18 29 -89 116 -133 163 -32 34 -43 52 -36 61 73
101 104 145 120 170 l19 30 -30 -22 c-16 -11 -60 -49 -97 -83 l-68 -61 -23 23
c-31 31 -139 123 -156 133 -8 5 -7 -3 5 -21z"/>
<path d="M1971 2630 c-13 -9 -6 -238 8 -263 15 -28 71 -58 100 -52 11 2 29 8
40 14 26 14 31 14 31 -2 0 -9 9 -12 29 -9 l30 4 0 151 c0 83 -2 153 -4 157 -2
4 -17 5 -32 3 l-28 -5 1 -96 c0 -122 -12 -151 -63 -152 -41 0 -53 35 -53 150
l0 105 -26 0 c-14 0 -29 -2 -33 -5z"/>
<path d="M2350 2628 c-59 -22 -86 -86 -56 -133 21 -32 40 -41 101 -49 59 -8
74 -19 59 -44 -15 -24 -81 -28 -121 -6 -27 14 -35 15 -48 4 -33 -28 -1 -64 72
-81 110 -24 193 55 152 145 -14 30 -28 36 -94 43 -63 6 -86 30 -55 55 23 18
62 16 97 -7 19 -13 23 -12 38 12 17 25 17 27 -6 44 -13 10 -31 19 -39 20 -61
5 -79 5 -100 -3z"/>
<path d="M2938 2633 c-16 -4 -18 -20 -18 -162 l0 -158 30 5 c17 2 30 9 31 16
0 6 1 73 2 149 2 147 -2 159 -45 150z"/>
<path d="M3090 2631 l-25 -7 0 -152 0 -152 32 0 31 0 0 106 c0 114 12 144 56
144 50 -1 62 -32 61 -157 l0 -93 32 0 33 0 0 113 c0 137 -14 175 -73 194 -31
11 -44 10 -71 -1 -26 -11 -35 -11 -42 -1 -5 7 -19 10 -34 6z"/>
<path d="M3433 2619 c-40 -26 -51 -63 -48 -160 3 -86 8 -102 41 -123 33 -22
64 -26 101 -11 37 15 47 5 30 -32 -16 -35 -73 -47 -104 -21 -14 11 -66 -19
-60 -35 6 -19 71 -47 108 -47 47 0 101 37 114 77 6 17 10 104 10 194 l0 164
-32 3 c-19 2 -33 -1 -33 -8 0 -7 -6 -8 -19 -1 -38 21 -75 21 -108 0z m110 -67
c25 -27 25 -126 2 -152 -45 -50 -97 -10 -97 75 0 39 5 61 17 75 23 25 57 26
78 2z"/>
<path d="M4425 2625 c-57 -24 -84 -77 -81 -160 4 -93 49 -145 127 -148 32 -1
56 6 83 22 l38 24 -21 20 c-17 18 -24 19 -46 9 -55 -25 -115 -4 -115 41 0 15
13 17 90 17 100 0 95 -4 90 75 -5 79 -92 132 -165 100z m92 -82 c21 -31 13
-37 -53 -38 -43 -1 -54 2 -54 14 0 21 11 35 34 48 26 14 54 5 73 -24z"/>
<path d="M5224 2629 c-67 -18 -100 -102 -82 -209 8 -48 52 -99 86 -101 9 0 26
-2 36 -4 49 -9 111 48 121 112 11 76 -3 141 -38 174 -16 16 -35 30 -41 30 -42
5 -54 5 -82 -2z m83 -85 c23 -36 22 -118 -2 -144 -21 -23 -53 -26 -81 -6 -15
12 -19 27 -19 81 0 54 4 69 19 81 31 22 64 17 83 -12z"/>
<path d="M5459 2631 c-1 -3 -2 -74 -3 -158 l-2 -151 33 -4 33 -4 0 112 c0 105
1 114 22 128 30 21 61 20 82 -3 14 -16 18 -40 19 -125 l1 -106 31 0 31 0 -1
98 c-1 105 7 138 37 148 55 17 91 -23 88 -101 -1 -22 -1 -65 -1 -96 l1 -56 30
5 30 4 0 113 c0 63 -4 125 -10 139 -20 55 -110 78 -165 42 -23 -15 -27 -15
-49 -1 -32 21 -74 25 -113 9 -20 -8 -33 -9 -35 -3 -4 11 -57 20 -59 10z"/>
<path d="M6223 2628 c-41 -11 -83 -61 -85 -101 -3 -75 3 -132 17 -153 52 -80
179 -74 217 10 20 44 16 154 -7 193 -29 49 -81 68 -142 51z m83 -83 c25 -38
21 -125 -7 -147 -52 -43 -99 -6 -99 77 0 42 5 60 20 75 28 28 66 26 86 -5z"/>
<path d="M6459 2596 c0 -22 -1 -94 -2 -158 l-2 -118 33 0 32 0 0 108 c0 96 2
111 20 127 14 13 28 16 51 11 24 -5 35 -1 50 17 24 29 24 34 -3 43 -39 13 -51
13 -84 -1 -20 -8 -34 -10 -36 -4 -2 6 -16 12 -31 13 -25 3 -27 1 -28 -38z"/>
<path d="M7406 2629 c-36 -10 -72 -44 -84 -78 -13 -40 -6 -149 12 -177 51 -77
161 -76 213 2 24 38 23 158 -2 201 -28 48 -81 68 -139 52z m78 -81 c15 -23 19
-50 17 -100 -1 -33 -33 -68 -61 -68 -38 0 -60 35 -60 95 0 42 5 60 20 75 27
27 66 26 84 -2z"/>
<path d="M7658 2633 c-10 -2 -18 -12 -19 -21 0 -9 -1 -79 -2 -155 l-2 -137 33
0 32 0 0 109 c0 102 2 111 22 125 28 20 49 20 74 2 16 -12 19 -28 21 -118 1
-57 2 -106 2 -109 1 -4 15 -9 31 -11 l30 -5 0 118 c0 134 -7 162 -50 188 -33
20 -99 19 -111 -1 -5 -8 -12 -6 -24 5 -9 10 -17 16 -18 16 -1 -1 -10 -3 -19
-6z"/>
<path d="M8029 2624 c-47 -19 -71 -63 -76 -138 -5 -70 13 -116 59 -149 39 -29
107 -27 152 4 l35 24 -25 22 c-23 20 -28 20 -41 8 -24 -25 -79 -19 -102 11
-11 15 -18 30 -15 35 3 5 45 9 95 9 l89 0 0 48 c0 102 -82 163 -171 126z m89
-66 c5 -7 12 -22 14 -33 3 -18 -3 -20 -50 -20 -62 -1 -78 12 -56 43 17 25 74
31 92 10z"/>
</g>
</svg>
